<?xml version="1.0" encoding="iso-8859-1"?>
<!-- Generator: Adobe Illustrator 16.0.0, SVG Export Plug-In . SVG Version: 6.00 Build 0)  -->
<!DOCTYPE svg PUBLIC "-//W3C//DTD SVG 1.1//EN" "http://www.w3.org/Graphics/SVG/1.1/DTD/svg11.dtd">
<svg version="1.1" id="Capa_1" xmlns="http://www.w3.org/2000/svg" xmlns:xlink="http://www.w3.org/1999/xlink" x="0px" y="0px"
	 width="612px" height="612px" viewBox="0 0 612 612" style="enable-background:new 0 0 612 612;" xml:space="preserve">
<g>
	<g>
		<g>
			<path d="M408.029,407.918c-54.48,0-105.698-21.213-144.225-59.729c-79.511-79.534-79.511-208.926,0-288.438
				c38.521-38.526,89.745-59.745,144.225-59.745c54.479,0,105.697,21.219,144.225,59.746C590.781,98.273,612,149.485,612,203.965
				s-21.219,105.698-59.746,144.225C513.729,386.711,462.51,407.918,408.029,407.918z M408.029,29.193
				c-46.683,0-90.573,18.184-123.59,51.2c-68.134,68.135-68.134,179.016,0,247.162c33.011,33.005,76.908,51.184,123.59,51.184
				c46.688,0,90.579-18.179,123.59-51.188c33.01-33.011,51.199-76.902,51.199-123.584s-18.185-90.567-51.199-123.572
				C498.603,47.377,454.717,29.193,408.029,29.193z"/>
			<path d="M244.179,382.421c-3.736,0-7.466-1.425-10.32-4.273c-5.703-5.696-5.703-14.938-0.006-20.635l23.385-23.396
				c5.703-5.709,14.944-5.709,20.641-0.006c5.703,5.69,5.703,14.938,0.006,20.635L254.5,378.142
				C251.651,380.996,247.915,382.421,244.179,382.421z"/>
			<path d="M75.56,611.994c-20.186,0-39.158-7.863-53.424-22.13C7.863,575.598,0,556.626,0,536.44
				c0-20.185,7.863-39.156,22.135-53.43l116.27-116.264c14.272-14.272,33.244-22.136,53.43-22.136
				c20.18,0,39.157,7.856,53.424,22.136c29.45,29.461,29.45,77.393,0.006,106.854L128.972,589.871
				C114.711,604.137,95.739,611.994,75.56,611.994z M191.835,373.799c-12.387,0-24.033,4.821-32.795,13.583L42.77,503.652
				c-8.762,8.763-13.583,20.401-13.583,32.788c-0.006,12.388,4.822,24.027,13.583,32.783c8.756,8.763,20.402,13.583,32.789,13.583
				c12.381,0,24.021-4.82,32.771-13.577l116.293-116.27c18.073-18.084,18.073-47.499-0.006-65.577
				C215.868,378.62,204.222,373.799,191.835,373.799z"/>
			<path d="M408.029,332.283c-34.277,0-66.5-13.352-90.742-37.583c-50.021-50.038-50.021-131.441,0-181.467
				c24.236-24.237,56.465-37.587,90.742-37.587c34.276,0,66.5,13.35,90.729,37.587c50.027,50.021,50.027,131.429,0,181.461
				C474.529,318.938,442.312,332.283,408.029,332.283z M408.029,104.84c-26.479,0-51.381,10.315-70.107,29.035
				c-38.644,38.649-38.644,101.536,0,140.191c18.728,18.721,43.623,29.035,70.107,29.035c26.479,0,51.375-10.314,70.096-29.035
				c38.644-38.655,38.649-101.542,0-140.191C459.404,115.155,434.514,104.84,408.029,104.84z"/>
		</g>
	</g>
</g>
<g>
</g>
<g>
</g>
<g>
</g>
<g>
</g>
<g>
</g>
<g>
</g>
<g>
</g>
<g>
</g>
<g>
</g>
<g>
</g>
<g>
</g>
<g>
</g>
<g>
</g>
<g>
</g>
<g>
</g>
</svg>
